<mxfile host="app.diagrams.net" modified="2023-11-30T19:36:53.182Z" agent="Mozilla/5.0 (X11; Ubuntu; Linux x86_64; rv:120.0) Gecko/20100101 Firefox/120.0" version="21.5.0" etag="gYlfbg80sFegbUZwJVBy" type="github">
  <diagram name="Page-1" id="L5bmVuRNQt5fvVvw8G2T">
    <mxGraphModel>
      <root>
        <mxCell id="0" />
        <mxCell id="1" parent="0" />
      </root>
    </mxGraphModel>
  </diagram>
</mxfile>
